<svg class="diagram-root" style="background: #f5f6f6" xmlns="http://www.w3.org/2000/svg" xmlns:xlink="http://www.w3.org/1999/xlink"><style>.diagram-root { font-family: "Helvetica Neue", sans-serif; font-size: 12px; } .t { overflow: visible; } .t-bg { y: 40; fill: #fff;   } .th { fill: #005aa0;   } .tht { fill: #fff; font-size: 14px;  } .tf { fill: #323c46; overflow: visible; } .tf.pk { fill: #005aa0; font-weight: bold; } .tf.fk { font-weight: bold; } .ty { fill: #adb1b5; font-weight: normal; text-anchor: end; } .r { fill: transparent; stroke: #c3c3c3; stroke-width: 1; } .l { stroke: 1; } .i { fill: #c2c7ce; stroke: #c2c7ce; } .i.ix { fill: #afb3b6; stroke: #000; } .fa { fill: transparent; overflow: visible; } .fa .bg.hover { fill: #f7f7f7; } .c { cy: 12; r: 4; stroke: #d2d2dc; fill: #d2d2dc; } .hr { fill: transparent; stroke: #323c46; stroke-opacity: 0.035; stroke-width: 13; } .dc { stroke: #fa5a3c; fill: #fa5a3c; } .x { stroke: white; stroke-width: 1; } .hl .th { fill: #1b9bff; } .hl .tht {  } .fhl .bg { fill: #e7f4ff; } .fhls .bg {  } .r.hl { stroke: #1b9bff; } .dim { opacity: 0.25; }</style><g class="drawing-wrapper" transform="translate(-158, -11) scale(1,1)"><g class="rs"><path d="M 180 361 m -1, 0 a 1,1 0 1,0 2,0 a 1,1 0 1,0 -2,0 M 180 361 m -0.5, 0 a 0.5,0.5 0 1,0 1,0 a 0.5,0.5 0 1,0 -1,0  M180 361 L180 361 168 361 M 180 367 m -1, 0 a 1,1 0 1,0 2,0 a 1,1 0 1,0 -2,0 M 180 367 m -0.5, 0 a 0.5,0.5 0 1,0 1,0 a 0.5,0.5 0 1,0 -1,0  M180 367 L180 367 173 361 180 355 M 180 355 m -1, 0 a 1,1 0 1,0 2,0 a 1,1 0 1,0 -2,0 M 180 355 m -0.5, 0 a 0.5,0.5 0 1,0 1,0 a 0.5,0.5 0 1,0 -1,0  M168 361 C 118 361, 103 102, 193 102 M 205 102 m -1, 0 a 1,1 0 1,0 2,0 a 1,1 0 1,0 -2,0 M 205 102 m -0.5, 0 a 0.5,0.5 0 1,0 1,0 a 0.5,0.5 0 1,0 -1,0  M205 102 L205 102 193 102 M199 108 L199 108 199 96" id="h276999363" class="r"></path></g><g class="hrs"></g><g class="ts"><svg width="162" height="150" x="205" y="45" id="h3024668182" class="t"><rect height="40" width="162" class="th"></rect><text x="13" y="25" class="tht">State_Heart_Mortality</text><rect height="110" width="162" class="t-bg" y="40"></rect><text x="13" y="61" class="tf pk">STATE<tspan x="149" class="ty">varchar(2)</tspan></text><path d="M7,14A2,2 0 0,1 5,12A2,2 0 0,1 7,10A2,2 0 0,1 9,12A2,2 0 0,1 7,14M12.65,10C11.83,7.67 9.61,6 7, 6A6, 6 0 0, 0 1, 12A6, 6 0 0, 0 7, 18C9.61, 18 11.83, 16.33 12.65, 14H17V18H21V14H23V10H12.65Z" class="i pk" transform="translate(74, 48) scale(0.65)"></path><text x="13" y="86" class="tf">YEAR<tspan x="149" class="ty">int</tspan></text><text x="13" y="111" class="tf">RATE<tspan x="149" class="ty">int</tspan></text><text x="13" y="136" class="tf">DEATHS<tspan x="149" class="ty">int</tspan></text></svg><svg width="153" height="125" x="180" y="279" id="h2522641008" class="t"><rect height="40" width="153" class="th"></rect><text x="13" y="25" class="tht">FASTFOOD</text><rect height="85" width="153" class="t-bg" y="40"></rect><text x="13" y="61" class="tf">TotalRestaruants<tspan x="140" class="ty">int</tspan></text><text x="13" y="86" class="tf fk">STATE<tspan x="140" class="ty">varchar(2)</tspan></text><text x="13" y="111" class="tf">PerCapita<tspan x="140" class="ty">int</tspan></text></svg><svg width="162" height="375" x="445" y="41" id="h1426332238" class="t"><rect height="40" width="162" class="th"></rect><text x="13" y="25" class="tht">Chance_Heart_Hurts</text><rect height="335" width="162" class="t-bg" y="40"></rect><text x="13" y="61" class="tf">index<tspan x="149" class="ty">bigint</tspan></text><text x="13" y="86" class="tf">Age<tspan x="149" class="ty">bigint</tspan></text><text x="13" y="111" class="tf">Sex<tspan x="149" class="ty">string</tspan></text><text x="13" y="136" class="tf">ChestPainType<tspan x="149" class="ty">string</tspan></text><text x="13" y="161" class="tf">RestingBP<tspan x="149" class="ty">bigint</tspan></text><text x="13" y="186" class="tf">Cholesterol<tspan x="149" class="ty">bigint</tspan></text><text x="13" y="211" class="tf">FastingBS<tspan x="149" class="ty">bigint,</tspan></text><text x="13" y="236" class="tf">RestingECG<tspan x="149" class="ty">string</tspan></text><text x="13" y="261" class="tf">MaxHR<tspan x="149" class="ty">bigint,</tspan></text><text x="13" y="286" class="tf">ExerciseAngina<tspan x="149" class="ty">string</tspan></text><text x="13" y="311" class="tf">Oldpeak<tspan x="149" class="ty">double</tspan></text><text x="13" y="336" class="tf">ST_Slope<tspan x="149" class="ty">string</tspan></text><text x="13" y="361" class="tf">HeartDisease<tspan x="149" class="ty">bigint</tspan></text></svg></g></g><text class="qdbd-link" x="10" y="20">www.quickdatabasediagrams.com</text></svg>